Coordinates
version=1
nRows=10
nColumns=40
inDegrees=yes

Units are S.I. units (second, meters, Newtons, ...)
Angles are in degrees.

endheader
time	pelvis_tilt	pelvis_list	pelvis_rotation	pelvis_tx	pelvis_ty	pelvis_tz	hip_flexion_r	hip_adduction_r	hip_rotation_r	knee_angle_r	knee_angle_r_beta	ankle_angle_r	subtalar_angle_r	mtp_angle_r	hip_flexion_l	hip_adduction_l	hip_rotation_l	knee_angle_l	knee_angle_l_beta	ankle_angle_l	subtalar_angle_l	mtp_angle_l	lumbar_extension	lumbar_bending	lumbar_rotation	arm_flex_r	arm_add_r	arm_rot_r	elbow_flex_r	pro_sup_r	wrist_flex_r	wrist_dev_r	arm_flex_l	arm_add_l	arm_rot_l	elbow_flex_l	pro_sup_l	wrist_flex_l	wrist_dev_l
      1.04000000	      0.05499395	     -4.87536018	      2.53952608	      0.05932023	      0.86322245	     -1.00853172	     31.16179606	      4.58355607	    -12.18187038	    -31.66793565	     -0.55270974	     -4.99778123	     -8.11225497	      1.69922840	    -13.01160145	      7.33963627	      9.06734879	    -34.21957789	     -0.59724430	     -6.39434526	     -5.71628601	     -7.08496416	     -6.37747285	      9.46276993	     -2.48197236	     -9.73245379	     -7.24377076	     19.77096670	      6.72976590	     89.95437384	      0.00000000	      0.00000000	     12.11702915	      9.67157721	     -7.70627707	     54.63383166	     89.95437384	      0.00000000	      0.00000000
      1.05000000	      0.28522074	     -5.10351215	      2.73980337	      0.07541132	      0.86422783	     -1.00743148	     30.46038903	      5.09451492	    -11.70583909	    -32.95319218	     -0.57514170	     -3.30597901	     -8.44266586	      1.64165320	    -11.78171239	      8.06514497	      9.09405942	    -37.38355635	     -0.65246614	    -11.27758981	     -3.85236004	     -6.21897024	     -6.39015434	      9.66980954	     -2.45856371	     -9.81747343	     -7.15773531	     19.72073105	      6.79566281	     89.95437384	      0.00000000	      0.00000000	     11.33946996	      9.68597093	     -7.54662374	     55.38618338	     89.95437384	      0.00000000	      0.00000000
      1.06000000	      0.44943341	     -5.55640340	      2.82430552	      0.09120881	      0.86533124	     -1.00570033	     29.58075348	      5.93893055	    -11.33453694	    -33.73482279	     -0.58878373	     -1.78672417	     -8.85727790	      1.68975721	    -10.32989579	      8.93460886	      8.65290654	    -40.52956024	     -0.70737427	    -15.19872611	     -2.21624719	     -5.69582728	     -6.36205518	     10.03833385	     -2.20108458	     -9.85129776	     -7.05954610	     19.80694540	      6.85218301	     89.95437384	      0.00000000	      0.00000000	     10.60593571	      9.62902238	     -7.39226709	     55.93641540	     89.95437384	      0.00000000	      0.00000000
      1.07000000	      0.65660231	     -5.99698249	      3.06223420	      0.10650069	      0.86666919	     -1.00439203	     28.46893330	      6.65455051	    -11.18274116	    -34.17013234	     -0.59638132	     -0.31622558	     -9.15664935	      1.76081192	     -8.67051100	      9.79785908	      8.07009485	    -43.85951377	     -0.76549292	    -17.05126814	     -0.58751900	     -5.60144849	     -6.40875363	     10.43039177	     -2.06443432	     -9.79085169	     -7.07281407	     19.79579748	      7.13505331	     89.95437384	      0.00000000	      0.00000000	     10.00428595	      9.50350076	     -7.35602196	     56.12799069	     89.95437384	      0.00000000	      0.00000000
      1.08000000	      0.65777121	     -6.54051632	      3.27729167	      0.12143435	      0.86776990	     -1.00296243	     27.49670923	      7.41912450	    -11.28473491	    -34.38439496	     -0.60012090	      1.01503061	     -9.18966926	      1.87381921	     -6.60352762	     10.72175224	      7.58490159	    -47.35794908	     -0.82655214	    -16.27051801	      1.73526247	     -5.82686008	     -6.21715437	     10.89934537	     -1.84498986	     -9.70836522	     -7.11862269	     19.51400613	      7.55241301	     89.95437384	      0.00000000	      0.00000000	      9.49237655	      9.35713279	     -7.43460657	     55.97943209	     89.95437384	      0.00000000	      0.00000000
      1.09000000	      0.69892936	     -7.01956265	      3.63839944	      0.13574307	      0.86905939	     -1.00214325	     26.37049991	      7.92549435	    -11.78180590	    -34.32207328	     -0.59903318	      2.16935274	     -8.90289803	      1.90565389	     -4.38128181	     11.46388210	      6.98263028	    -50.77727509	     -0.88623064	    -14.18137985	      4.06285589	     -6.10332616	     -6.11489288	     11.36589429	     -1.66548701	     -9.54769748	     -7.22681811	     19.49403025	      7.92828911	     89.95437384	      0.00000000	      0.00000000	      9.18227727	      9.09422874	     -7.65434467	     55.43317355	     89.95437384	      0.00000000	      0.00000000
      1.10000000	      0.48901624	     -7.17958477	      4.02618688	      0.14949371	      0.87028568	     -1.00184572	     25.53012079	      7.93356382	    -12.47802619	    -34.27760460	     -0.59825706	      2.80279630	     -8.30409040	      2.08828032	     -1.71038368	     11.65870010	      6.19295810	    -53.90866923	     -0.94088377	    -12.32657432	      6.90796516	     -6.53427795	     -5.80052997	     11.48790705	     -1.60189794	     -9.34678623	     -7.42573078	     19.38182972	      8.58540679	     89.95437384	      0.00000000	      0.00000000	      8.86011627	      8.80454171	     -7.78925065	     54.69251292	     89.95437384	      0.00000000	      0.00000000
      1.11000000	      0.66118077	     -7.43611987	      4.41628678	      0.16325971	      0.87237735	     -1.00146210	     24.04970664	      8.21117188	    -12.98439176	    -33.81152106	     -0.59012237	      3.88188304	     -7.77872301	      1.99975474	      0.39653576	     12.03838518	      5.64928651	    -56.35496828	     -0.98357975	    -10.79772202	      8.19931264	     -6.81907881	     -5.90087849	     11.72867188	     -1.41814873	     -8.91588910	     -7.58331407	     19.32190661	      8.95044948	     89.95437384	      0.00000000	      0.00000000	      8.72447015	      8.48033285	     -8.04817297	     53.56544621	     89.95437384	      0.00000000	      0.00000000
      1.12000000	      0.57474593	     -7.48500670	      4.82084040	      0.17653340	      0.87424060	     -1.00140524	     22.92941362	      8.11393201	    -13.72648019	    -33.44871994	     -0.58379029	      4.59519056	     -6.76438960	      1.98759333	      2.90171378	     11.98441715	      4.89205966	    -58.54514079	     -1.02180547	     -9.12635638	      9.41306516	     -7.78222468	     -5.77207321	     11.73836162	     -1.30301193	     -8.44116085	     -7.78895134	     19.22618704	      9.43348739	     89.95437384	      0.00000000	      0.00000000	      8.52842170	      8.17216990	     -8.36283692	     52.32470060	     89.95437384	      0.00000000	      0.00000000
      1.13000000	      0.79947071	     -7.14166754	      4.69423566	      0.19011071	      0.87684351	     -1.00073122	     21.38513678	      7.90881641	    -13.77718441	    -33.10034017	     -0.57770992	      4.99996262	     -6.49923424	      1.90778388	      4.60072740	     11.54658849	      4.88630567	    -59.87581685	     -1.04503015	     -8.41575673	      9.20552160	     -7.84857137	     -6.13996079	     11.27878055	     -0.68304988	     -7.79207312	     -7.94507265	     19.22395638	      9.78283428	     89.95437384	      0.00000000	      0.00000000	      8.22827293	      7.91612233	     -8.43608047	     51.22993877	     89.95437384	      0.00000000	      0.00000000
